<svg width="157" height="112" viewBox="0 0 157 112" fill="none" xmlns="http://www.w3.org/2000/svg">
<mask id="path-1-outside-1_388_48" maskUnits="userSpaceOnUse" x="1.5" y="18" width="99" height="62" fill="black">
<rect fill="white" x="1.5" y="18" width="99" height="62"/>
<path d="M27.62 77.96C23.0333 77.96 18.9267 76.84 15.3 74.6C11.6733 72.3067 8.82 69 6.74 64.68C4.66 60.36 3.62 55.1333 3.62 49C3.62 42.8667 4.66 37.64 6.74 33.32C8.82 29 11.6733 25.72 15.3 23.48C18.9267 21.1867 23.0333 20.04 27.62 20.04C32.26 20.04 36.3667 21.1867 39.94 23.48C43.5667 25.72 46.42 29 48.5 33.32C50.58 37.64 51.62 42.8667 51.62 49C51.62 55.1333 50.58 60.36 48.5 64.68C46.42 69 43.5667 72.3067 39.94 74.6C36.3667 76.84 32.26 77.96 27.62 77.96ZM27.62 67C29.8067 67 31.7 66.3867 33.3 65.16C34.9533 63.9333 36.2333 61.9867 37.14 59.32C38.1 56.6533 38.58 53.2133 38.58 49C38.58 44.7867 38.1 41.3467 37.14 38.68C36.2333 36.0133 34.9533 34.0667 33.3 32.84C31.7 31.6133 29.8067 31 27.62 31C25.4867 31 23.5933 31.6133 21.94 32.84C20.34 34.0667 19.06 36.0133 18.1 38.68C17.1933 41.3467 16.74 44.7867 16.74 49C16.74 53.2133 17.1933 56.6533 18.1 59.32C19.06 61.9867 20.34 63.9333 21.94 65.16C23.5933 66.3867 25.4867 67 27.62 67ZM75.2956 77.96C71.4023 77.96 67.5356 77.4533 63.6956 76.44C59.8556 75.3733 56.6023 73.88 53.9356 71.96L58.9756 62.04C61.109 63.5867 63.589 64.8133 66.4156 65.72C69.2423 66.6267 72.0956 67.08 74.9756 67.08C78.229 67.08 80.789 66.44 82.6556 65.16C84.5223 63.88 85.4556 62.12 85.4556 59.88C85.4556 57.7467 84.629 56.0667 82.9756 54.84C81.3223 53.6133 78.6556 53 74.9756 53H69.0556V44.44L84.6556 26.76L86.0956 31.4L56.7356 31.4L56.7356 21L95.9356 21V29.4L80.4156 47.08L73.8556 43.32H77.6156C84.4956 43.32 89.6956 44.8667 93.2156 47.96C96.7356 51.0533 98.4956 55.0267 98.4956 59.88C98.4956 63.0267 97.669 65.9867 96.0156 68.76C94.3623 71.48 91.829 73.6933 88.4156 75.4C85.0023 77.1067 80.629 77.96 75.2956 77.96Z"/>
</mask>
<path d="M15.3 74.6L14.4983 75.8678L14.505 75.872L14.5118 75.8762L15.3 74.6ZM6.74 64.68L5.3885 65.3307L6.74 64.68ZM6.74 33.32L8.0915 33.9707L6.74 33.32ZM15.3 23.48L16.0882 24.7562L16.095 24.752L16.1017 24.7478L15.3 23.48ZM39.94 23.48L39.1298 24.7424L39.1407 24.7494L39.1518 24.7562L39.94 23.48ZM48.5 33.32L47.1485 33.9707L48.5 33.32ZM48.5 64.68L47.1485 64.0293L48.5 64.68ZM39.94 74.6L40.7367 75.8709L40.7417 75.8678L39.94 74.6ZM33.3 65.16L32.4062 63.9554L32.3967 63.9624L32.3874 63.9696L33.3 65.16ZM37.14 59.32L35.7287 58.8119L35.7241 58.8245L35.7198 58.8371L37.14 59.32ZM37.14 38.68L35.7198 39.1629L35.7241 39.1755L35.7287 39.1881L37.14 38.68ZM33.3 32.84L32.3874 34.0304L32.3967 34.0376L32.4062 34.0446L33.3 32.84ZM21.94 32.84L21.0462 31.6353L21.0367 31.6424L21.0274 31.6496L21.94 32.84ZM18.1 38.68L16.6887 38.1719L16.6841 38.1845L16.6798 38.1971L18.1 38.68ZM18.1 59.32L16.6798 59.8029L16.6841 59.8155L16.6887 59.8281L18.1 59.32ZM21.94 65.16L21.0274 66.3504L21.0367 66.3576L21.0462 66.3646L21.94 65.16ZM27.62 76.46C23.2898 76.46 19.46 75.4063 16.0882 73.3238L14.5118 75.8762C18.3934 78.2737 22.7769 79.46 27.62 79.46L27.62 76.46ZM16.1017 73.3322C12.7396 71.2062 10.0644 68.1268 8.0915 64.0293L5.3885 65.3307C7.57563 69.8732 10.607 73.4071 14.4983 75.8678L16.1017 73.3322ZM8.0915 64.0293C6.13259 59.9608 5.12 54.9689 5.12 49H2.12C2.12 55.2978 3.18741 60.7592 5.3885 65.3307L8.0915 64.0293ZM5.12 49C5.12 43.0311 6.13259 38.0392 8.0915 33.9707L5.3885 32.6693C3.18741 37.2408 2.12 42.7022 2.12 49H5.12ZM8.0915 33.9707C10.0633 29.8755 12.7347 26.8275 16.0882 24.7562L14.5118 22.2038C10.612 24.6125 7.57674 28.1245 5.3885 32.6693L8.0915 33.9707ZM16.1017 24.7478C19.4718 22.6167 23.2967 21.54 27.62 21.54V18.54C22.7699 18.54 18.3816 19.7566 14.4983 22.2122L16.1017 24.7478ZM27.62 21.54C32.0005 21.54 35.8205 22.6185 39.1298 24.7424L40.7502 22.2176C36.9128 19.7548 32.5195 18.54 27.62 18.54V21.54ZM39.1518 24.7562C42.5053 26.8275 45.1767 29.8755 47.1485 33.9707L49.8515 32.6693C47.6633 28.1245 44.6281 24.6125 40.7282 22.2038L39.1518 24.7562ZM47.1485 33.9707C49.1074 38.0392 50.12 43.0311 50.12 49H53.12C53.12 42.7022 52.0526 37.2408 49.8515 32.6693L47.1485 33.9707ZM50.12 49C50.12 54.9689 49.1074 59.9608 47.1485 64.0293L49.8515 65.3307C52.0526 60.7592 53.12 55.2978 53.12 49H50.12ZM47.1485 64.0293C45.1756 68.1268 42.5004 71.2062 39.1383 73.3322L40.7417 75.8678C44.633 73.4071 47.6644 69.8732 49.8515 65.3307L47.1485 64.0293ZM39.1433 73.3291C35.8324 75.4046 32.0074 76.46 27.62 76.46L27.62 79.46C32.5126 79.46 36.901 78.2754 40.7367 75.8709L39.1433 73.3291ZM27.62 68.5C30.107 68.5 32.3282 67.7952 34.2127 66.3504L32.3874 63.9696C31.0718 64.9782 29.5063 65.5 27.62 65.5V68.5ZM34.1938 66.3646C36.167 64.9007 37.5906 62.6545 38.5602 59.8029L35.7198 58.8371C34.8761 61.3189 33.7397 62.966 32.4062 63.9554L34.1938 66.3646ZM38.5513 59.8281C39.5912 56.9396 40.08 53.3105 40.08 49H37.08C37.08 53.1162 36.6088 56.367 35.7287 58.8119L38.5513 59.8281ZM40.08 49C40.08 44.6895 39.5912 41.0604 38.5513 38.1719L35.7287 39.1881C36.6088 41.633 37.08 44.8838 37.08 49H40.08ZM38.5602 38.1971C37.5906 35.3455 36.167 33.0993 34.1938 31.6353L32.4062 34.0446C33.7397 35.034 34.8761 36.6811 35.7198 39.1629L38.5602 38.1971ZM34.2127 31.6496C32.3282 30.2048 30.107 29.5 27.62 29.5V32.5C29.5063 32.5 31.0718 33.0218 32.3874 34.0304L34.2127 31.6496ZM27.62 29.5C25.1773 29.5 22.9679 30.2096 21.0462 31.6353L22.8338 34.0446C24.2187 33.0171 25.7961 32.5 27.62 32.5V29.5ZM21.0274 31.6496C19.1242 33.1086 17.7082 35.3399 16.6887 38.1719L19.5113 39.1881C20.4118 36.6868 21.5558 35.0247 22.8526 34.0304L21.0274 31.6496ZM16.6798 38.1971C15.701 41.0761 15.24 44.6956 15.24 49H18.24C18.24 44.8777 18.6857 41.6173 19.5202 39.1629L16.6798 38.1971ZM15.24 49C15.24 53.3044 15.701 56.9239 16.6798 59.8029L19.5202 58.8371C18.6857 56.3827 18.24 53.1223 18.24 49H15.24ZM16.6887 59.8281C17.7082 62.6601 19.1242 64.8914 21.0274 66.3504L22.8526 63.9696C21.5558 62.9753 20.4118 61.3132 19.5113 58.8119L16.6887 59.8281ZM21.0462 66.3646C22.9679 67.7904 25.1773 68.5 27.62 68.5V65.5C25.7961 65.5 24.2187 64.9829 22.8338 63.9554L21.0462 66.3646ZM63.6956 76.44L63.2942 77.8853L63.3035 77.8879L63.3129 77.8904L63.6956 76.44ZM53.9356 71.96L52.5983 71.2806L52.0162 72.4264L53.0592 73.1773L53.9356 71.96ZM58.9756 62.04L59.8561 60.8256L58.434 59.7946L57.6383 61.3606L58.9756 62.04ZM66.4156 65.72L65.9575 67.1483L66.4156 65.72ZM82.6556 65.16L83.5039 66.3971L82.6556 65.16ZM69.0556 53H67.5556V54.5H69.0556V53ZM69.0556 44.44L67.9309 43.4476L67.5556 43.8728L67.5556 44.44H69.0556ZM84.6556 26.76L86.0882 26.3154L85.297 23.7659L83.5309 25.7676L84.6556 26.76ZM86.0956 31.4V32.9H88.1317L87.5282 30.9554L86.0956 31.4ZM56.7356 31.4L55.2356 31.4V32.9H56.7356V31.4ZM56.7356 21V19.5L55.2356 19.5V21L56.7356 21ZM95.9356 21H97.4356V19.5H95.9356V21ZM95.9356 29.4L97.0629 30.3896L97.4356 29.965V29.4H95.9356ZM80.4156 47.08L79.6697 48.3814L80.7338 48.9913L81.5429 48.0696L80.4156 47.08ZM73.8556 43.32V41.82H68.2222L73.1097 44.6214L73.8556 43.32ZM93.2156 47.96L92.2255 49.0867L93.2156 47.96ZM96.0156 68.76L97.2975 69.5392L97.304 69.5281L96.0156 68.76ZM88.4156 75.4L87.7448 74.0584L88.4156 75.4ZM75.2956 76.46C71.5341 76.46 67.796 75.9707 64.0784 74.9896L63.3129 77.8904C67.2753 78.936 71.2705 79.46 75.2956 79.46V76.46ZM64.0971 74.9947C60.3924 73.9657 57.3082 72.5399 54.8121 70.7427L53.0592 73.1773C55.8964 75.2201 59.3188 76.781 63.2942 77.8853L64.0971 74.9947ZM55.2729 72.6394L60.3129 62.7194L57.6383 61.3606L52.5983 71.2806L55.2729 72.6394ZM58.0952 63.2544C60.3722 64.9053 62.9985 66.1992 65.9575 67.1483L66.8738 64.2917C64.1794 63.4275 61.8457 62.2681 59.8561 60.8256L58.0952 63.2544ZM65.9575 67.1483C68.9276 68.101 71.9354 68.58 74.9756 68.58V65.58C72.2559 65.58 69.557 65.1523 66.8738 64.2917L65.9575 67.1483ZM74.9756 68.58C78.4051 68.58 81.3002 67.9082 83.5039 66.3971L81.8073 63.9229C80.2777 64.9718 78.0528 65.58 74.9756 65.58V68.58ZM83.5039 66.3971C85.7734 64.8409 86.9556 62.6208 86.9556 59.88H83.9556C83.9556 61.6192 83.2712 62.9191 81.8073 63.9229L83.5039 66.3971ZM86.9556 59.88C86.9556 57.292 85.9201 55.1568 83.8694 53.6354L82.0819 56.0446C83.3379 56.9765 83.9556 58.2013 83.9556 59.88H86.9556ZM83.8694 53.6354C81.8225 52.1167 78.7541 51.5 74.9756 51.5V54.5C78.5571 54.5 80.8221 55.11 82.0819 56.0446L83.8694 53.6354ZM74.9756 51.5H69.0556V54.5H74.9756V51.5ZM70.5556 53V44.44H67.5556V53H70.5556ZM70.1804 45.4324L85.7804 27.7524L83.5309 25.7676L67.9309 43.4476L70.1804 45.4324ZM83.223 27.2046L84.663 31.8446L87.5282 30.9554L86.0882 26.3154L83.223 27.2046ZM86.0956 29.9L56.7356 29.9V32.9L86.0956 32.9V29.9ZM58.2356 31.4L58.2356 21L55.2356 21L55.2356 31.4L58.2356 31.4ZM56.7356 22.5L95.9356 22.5V19.5L56.7356 19.5L56.7356 22.5ZM94.4356 21V29.4H97.4356V21H94.4356ZM94.8083 28.4104L79.2883 46.0904L81.5429 48.0696L97.0629 30.3896L94.8083 28.4104ZM81.1615 45.7786L74.6015 42.0186L73.1097 44.6214L79.6697 48.3814L81.1615 45.7786ZM73.8556 44.82H77.6156L77.6156 41.82H73.8556L73.8556 44.82ZM77.6156 44.82C84.2981 44.82 89.0829 46.3251 92.2255 49.0867L94.2058 46.8333C90.3084 43.4082 84.6932 41.82 77.6156 41.82L77.6156 44.82ZM92.2255 49.0867C95.4084 51.8839 96.9956 55.4405 96.9956 59.88H99.9956C99.9956 54.6128 98.0628 50.2228 94.2058 46.8333L92.2255 49.0867ZM96.9956 59.88C96.9956 62.7489 96.2459 65.4445 94.7272 67.9919L97.304 69.5281C99.0921 66.5288 99.9956 63.3044 99.9956 59.88H96.9956ZM94.7338 67.9809C93.2541 70.4154 90.9563 72.4526 87.7448 74.0584L89.0864 76.7416C92.7016 74.9341 95.4705 72.5446 97.2974 69.5391L94.7338 67.9809ZM87.7448 74.0584C84.6057 75.6279 80.4831 76.46 75.2956 76.46V79.46C80.7748 79.46 85.3989 78.5854 89.0864 76.7416L87.7448 74.0584Z" fill="#FFA471" mask="url(#path-1-outside-1_388_48)"/>
</svg>
