<svg width="107" height="58" viewBox="0 0 107 58" fill="none" xmlns="http://www.w3.org/2000/svg">
<mask id="path-1-outside-1_185_21" maskUnits="userSpaceOnUse" x="-1.5" y="-2" width="110" height="62" fill="black">
<rect fill="white" x="-1.5" y="-2" width="110" height="62"/>
<path d="M24.62 57.96C20.0333 57.96 15.9267 56.84 12.3 54.6C8.67333 52.3067 5.82 49 3.74 44.68C1.66 40.36 0.62 35.1333 0.62 29C0.62 22.8667 1.66 17.64 3.74 13.32C5.82 9 8.67333 5.72 12.3 3.48C15.9267 1.18667 20.0333 0.039999 24.62 0.039999C29.26 0.039999 33.3667 1.18667 36.94 3.48C40.5667 5.72 43.42 9 45.5 13.32C47.58 17.64 48.62 22.8667 48.62 29C48.62 35.1333 47.58 40.36 45.5 44.68C43.42 49 40.5667 52.3067 36.94 54.6C33.3667 56.84 29.26 57.96 24.62 57.96ZM24.62 47C26.8067 47 28.7 46.3867 30.3 45.16C31.9533 43.9333 33.2333 41.9867 34.14 39.32C35.1 36.6533 35.58 33.2133 35.58 29C35.58 24.7867 35.1 21.3467 34.14 18.68C33.2333 16.0133 31.9533 14.0667 30.3 12.84C28.7 11.6133 26.8067 11 24.62 11C22.4867 11 20.5933 11.6133 18.94 12.84C17.34 14.0667 16.06 16.0133 15.1 18.68C14.1933 21.3467 13.74 24.7867 13.74 29C13.74 33.2133 14.1933 36.6533 15.1 39.32C16.06 41.9867 17.34 43.9333 18.94 45.16C20.5933 46.3867 22.4867 47 24.62 47ZM54.2769 45.24V36.52L80.6769 0.999996H94.2769L68.4369 36.52L62.1169 34.68L106.197 34.68V45.24H54.2769ZM84.4369 57V45.24L84.8369 34.68V24.2H97.0769V57H84.4369Z"/>
</mask>
<path d="M12.3 54.6L11.4983 55.8678L11.505 55.872L11.5118 55.8762L12.3 54.6ZM3.74 44.68L2.3885 45.3307L3.74 44.68ZM3.74 13.32L5.0915 13.9707L3.74 13.32ZM12.3 3.48L13.0882 4.7562L13.095 4.75203L13.1017 4.74779L12.3 3.48ZM36.94 3.48L36.1298 4.74238L36.1407 4.74938L36.1518 4.7562L36.94 3.48ZM45.5 13.32L44.1485 13.9707L45.5 13.32ZM45.5 44.68L44.1485 44.0293L45.5 44.68ZM36.94 54.6L37.7367 55.8709L37.7417 55.8678L36.94 54.6ZM30.3 45.16L29.4062 43.9554L29.3967 43.9624L29.3874 43.9696L30.3 45.16ZM34.14 39.32L32.7287 38.8119L32.7241 38.8245L32.7198 38.8371L34.14 39.32ZM34.14 18.68L32.7198 19.1629L32.7241 19.1755L32.7287 19.1881L34.14 18.68ZM30.3 12.84L29.3874 14.0304L29.3967 14.0376L29.4062 14.0446L30.3 12.84ZM18.94 12.84L18.0462 11.6353L18.0367 11.6424L18.0274 11.6496L18.94 12.84ZM15.1 18.68L13.6887 18.1719L13.6841 18.1845L13.6798 18.1971L15.1 18.68ZM15.1 39.32L13.6798 39.8029L13.6841 39.8155L13.6887 39.8281L15.1 39.32ZM18.94 45.16L18.0274 46.3504L18.0367 46.3576L18.0462 46.3646L18.94 45.16ZM24.62 56.46C20.2898 56.46 16.46 55.4063 13.0882 53.3238L11.5118 55.8762C15.3934 58.2737 19.7769 59.46 24.62 59.46L24.62 56.46ZM13.1017 53.3322C9.73962 51.2062 7.06437 48.1268 5.0915 44.0293L2.3885 45.3307C4.57563 49.8732 7.60704 53.4071 11.4983 55.8678L13.1017 53.3322ZM5.0915 44.0293C3.13259 39.9608 2.12 34.9689 2.12 29H-0.88C-0.88 35.2978 0.18741 40.7592 2.3885 45.3307L5.0915 44.0293ZM2.12 29C2.12 23.0311 3.13259 18.0392 5.0915 13.9707L2.3885 12.6693C0.18741 17.2408 -0.88 22.7022 -0.88 29H2.12ZM5.0915 13.9707C7.06327 9.87552 9.73472 6.82749 13.0882 4.7562L11.5118 2.2038C7.61195 4.6125 4.57674 8.12448 2.3885 12.6693L5.0915 13.9707ZM13.1017 4.74779C16.4718 2.6167 20.2967 1.54 24.62 1.54V-1.46C19.7699 -1.46 15.3816 -0.243372 11.4983 2.21221L13.1017 4.74779ZM24.62 1.54C29.0005 1.54 32.8205 2.61851 36.1298 4.74238L37.7502 2.21762C33.9128 -0.245176 29.5195 -1.46 24.62 -1.46V1.54ZM36.1518 4.7562C39.5053 6.82749 42.1767 9.87552 44.1485 13.9707L46.8515 12.6693C44.6633 8.12448 41.6281 4.6125 37.7282 2.2038L36.1518 4.7562ZM44.1485 13.9707C46.1074 18.0392 47.12 23.0311 47.12 29H50.12C50.12 22.7022 49.0526 17.2408 46.8515 12.6693L44.1485 13.9707ZM47.12 29C47.12 34.9689 46.1074 39.9608 44.1485 44.0293L46.8515 45.3307C49.0526 40.7592 50.12 35.2978 50.12 29H47.12ZM44.1485 44.0293C42.1756 48.1268 39.5004 51.2062 36.1383 53.3322L37.7417 55.8678C41.633 53.4071 44.6644 49.8732 46.8515 45.3307L44.1485 44.0293ZM36.1433 53.3291C32.8324 55.4046 29.0074 56.46 24.62 56.46L24.62 59.46C29.5126 59.46 33.901 58.2754 37.7367 55.8709L36.1433 53.3291ZM24.62 48.5C27.107 48.5 29.3282 47.7952 31.2127 46.3504L29.3874 43.9696C28.0718 44.9782 26.5063 45.5 24.62 45.5V48.5ZM31.1938 46.3646C33.167 44.9007 34.5906 42.6545 35.5602 39.8029L32.7198 38.8371C31.8761 41.3189 30.7397 42.966 29.4062 43.9554L31.1938 46.3646ZM35.5513 39.8281C36.5912 36.9396 37.08 33.3105 37.08 29H34.08C34.08 33.1162 33.6088 36.367 32.7287 38.8119L35.5513 39.8281ZM37.08 29C37.08 24.6895 36.5912 21.0604 35.5513 18.1719L32.7287 19.1881C33.6088 21.633 34.08 24.8838 34.08 29H37.08ZM35.5602 18.1971C34.5906 15.3455 33.167 13.0993 31.1938 11.6353L29.4062 14.0446C30.7397 15.034 31.8761 16.6811 32.7198 19.1629L35.5602 18.1971ZM31.2127 11.6496C29.3282 10.2048 27.107 9.5 24.62 9.5V12.5C26.5063 12.5 28.0718 13.0218 29.3874 14.0304L31.2127 11.6496ZM24.62 9.5C22.1773 9.5 19.9679 10.2096 18.0462 11.6353L19.8338 14.0446C21.2187 13.0171 22.7961 12.5 24.62 12.5V9.5ZM18.0274 11.6496C16.1242 13.1086 14.7082 15.3399 13.6887 18.1719L16.5113 19.1881C17.4118 16.6868 18.5558 15.0247 19.8526 14.0304L18.0274 11.6496ZM13.6798 18.1971C12.701 21.0761 12.24 24.6956 12.24 29H15.24C15.24 24.8777 15.6857 21.6173 16.5202 19.1629L13.6798 18.1971ZM12.24 29C12.24 33.3044 12.701 36.9239 13.6798 39.8029L16.5202 38.8371C15.6857 36.3827 15.24 33.1223 15.24 29H12.24ZM13.6887 39.8281C14.7082 42.6601 16.1242 44.8914 18.0274 46.3504L19.8526 43.9696C18.5558 42.9753 17.4118 41.3132 16.5113 38.8119L13.6887 39.8281ZM18.0462 46.3646C19.9679 47.7904 22.1773 48.5 24.62 48.5V45.5C22.7961 45.5 21.2187 44.9829 19.8338 43.9554L18.0462 46.3646ZM54.2769 45.24H52.7769L52.7769 46.74H54.2769L54.2769 45.24ZM54.2769 36.52L53.073 35.6252L52.7769 36.0236V36.52H54.2769ZM80.6769 0.999996V-0.500004H79.9228L79.473 0.105211L80.6769 0.999996ZM94.2769 0.999996L95.4899 1.88242L97.223 -0.500004L94.2769 -0.500004V0.999996ZM68.4369 36.52L68.0176 37.9602L69.0297 38.2549L69.6499 37.4024L68.4369 36.52ZM62.1169 34.68V33.18L61.6976 36.1202L62.1169 34.68ZM106.197 34.68H107.697V33.18H106.197V34.68ZM106.197 45.24V46.74H107.697V45.24H106.197ZM84.4369 57H82.9369V58.5H84.4369V57ZM84.4369 45.24L82.938 45.1832L82.9369 45.2116V45.24H84.4369ZM84.8369 34.68L86.3358 34.7368L86.3369 34.7084V34.68H84.8369ZM84.8369 24.2L84.8369 22.7H83.3369L83.3369 24.2H84.8369ZM97.0769 24.2H98.5769L98.5769 22.7H97.0769L97.0769 24.2ZM97.0769 57V58.5H98.5769V57H97.0769ZM55.7769 45.24V36.52H52.7769V45.24H55.7769ZM55.4808 37.4148L81.8808 1.89478L79.473 0.105211L53.073 35.6252L55.4808 37.4148ZM80.6769 2.5H94.2769V-0.500004H80.6769V2.5ZM93.0639 0.117577L67.2239 35.6376L69.6499 37.4024L95.4899 1.88242L93.0639 0.117577ZM68.8562 35.0798L62.5362 33.2398L61.6976 36.1202L68.0176 37.9602L68.8562 35.0798ZM62.1169 36.18L106.197 36.18V33.18L62.1169 33.18V36.18ZM104.697 34.68V45.24H107.697V34.68H104.697ZM106.197 43.74L54.2769 43.74L54.2769 46.74H106.197V43.74ZM85.9369 57V45.24H82.9369V57H85.9369ZM85.9358 45.2968L86.3358 34.7368L83.338 34.6232L82.938 45.1832L85.9358 45.2968ZM86.3369 34.68V24.2H83.3369V34.68H86.3369ZM84.8369 25.7H97.0769L97.0769 22.7H84.8369L84.8369 25.7ZM95.5769 24.2V57H98.5769V24.2H95.5769ZM97.0769 55.5H84.4369V58.5H97.0769V55.5Z" fill="#FFA471" mask="url(#path-1-outside-1_185_21)"/>
</svg>
