<svg width="157" height="112" viewBox="0 0 157 112" fill="none" xmlns="http://www.w3.org/2000/svg">
<mask id="path-1-outside-1_388_20" maskUnits="userSpaceOnUse" x="1.5" y="18" width="110" height="62" fill="black">
<rect fill="white" x="1.5" y="18" width="110" height="62"/>
<path d="M27.62 77.96C23.0333 77.96 18.9267 76.84 15.3 74.6C11.6733 72.3067 8.82 69 6.74 64.68C4.66 60.36 3.62 55.1333 3.62 49C3.62 42.8667 4.66 37.64 6.74 33.32C8.82 29 11.6733 25.72 15.3 23.48C18.9267 21.1867 23.0333 20.04 27.62 20.04C32.26 20.04 36.3667 21.1867 39.94 23.48C43.5667 25.72 46.42 29 48.5 33.32C50.58 37.64 51.62 42.8667 51.62 49C51.62 55.1333 50.58 60.36 48.5 64.68C46.42 69 43.5667 72.3067 39.94 74.6C36.3667 76.84 32.26 77.96 27.62 77.96ZM27.62 67C29.8067 67 31.7 66.3867 33.3 65.16C34.9533 63.9333 36.2333 61.9867 37.14 59.32C38.1 56.6533 38.58 53.2133 38.58 49C38.58 44.7867 38.1 41.3467 37.14 38.68C36.2333 36.0133 34.9533 34.0667 33.3 32.84C31.7 31.6133 29.8067 31 27.62 31C25.4867 31 23.5933 31.6133 21.94 32.84C20.34 34.0667 19.06 36.0133 18.1 38.68C17.1933 41.3467 16.74 44.7867 16.74 49C16.74 53.2133 17.1933 56.6533 18.1 59.32C19.06 61.9867 20.34 63.9333 21.94 65.16C23.5933 66.3867 25.4867 67 27.62 67ZM57.2769 65.24V56.52L83.6769 21H97.2769L71.4369 56.52L65.1169 54.68L109.197 54.68V65.24H57.2769ZM87.4369 77V65.24L87.8369 54.68V44.2H100.077V77H87.4369Z"/>
</mask>
<path d="M15.3 74.6L14.4983 75.8678L14.505 75.872L14.5118 75.8762L15.3 74.6ZM6.74 64.68L5.3885 65.3307L6.74 64.68ZM6.74 33.32L8.0915 33.9707L6.74 33.32ZM15.3 23.48L16.0882 24.7562L16.095 24.752L16.1017 24.7478L15.3 23.48ZM39.94 23.48L39.1298 24.7424L39.1407 24.7494L39.1518 24.7562L39.94 23.48ZM48.5 33.32L47.1485 33.9707L48.5 33.32ZM48.5 64.68L47.1485 64.0293L48.5 64.68ZM39.94 74.6L40.7367 75.8709L40.7417 75.8678L39.94 74.6ZM33.3 65.16L32.4062 63.9554L32.3967 63.9624L32.3874 63.9696L33.3 65.16ZM37.14 59.32L35.7287 58.8119L35.7241 58.8245L35.7198 58.8371L37.14 59.32ZM37.14 38.68L35.7198 39.1629L35.7241 39.1755L35.7287 39.1881L37.14 38.68ZM33.3 32.84L32.3874 34.0304L32.3967 34.0376L32.4062 34.0446L33.3 32.84ZM21.94 32.84L21.0462 31.6353L21.0367 31.6424L21.0274 31.6496L21.94 32.84ZM18.1 38.68L16.6887 38.1719L16.6841 38.1845L16.6798 38.1971L18.1 38.68ZM18.1 59.32L16.6798 59.8029L16.6841 59.8155L16.6887 59.8281L18.1 59.32ZM21.94 65.16L21.0274 66.3504L21.0367 66.3576L21.0462 66.3646L21.94 65.16ZM27.62 76.46C23.2898 76.46 19.46 75.4063 16.0882 73.3238L14.5118 75.8762C18.3934 78.2737 22.7769 79.46 27.62 79.46L27.62 76.46ZM16.1017 73.3322C12.7396 71.2062 10.0644 68.1268 8.0915 64.0293L5.3885 65.3307C7.57563 69.8732 10.607 73.4071 14.4983 75.8678L16.1017 73.3322ZM8.0915 64.0293C6.13259 59.9608 5.12 54.9689 5.12 49H2.12C2.12 55.2978 3.18741 60.7592 5.3885 65.3307L8.0915 64.0293ZM5.12 49C5.12 43.0311 6.13259 38.0392 8.0915 33.9707L5.3885 32.6693C3.18741 37.2408 2.12 42.7022 2.12 49H5.12ZM8.0915 33.9707C10.0633 29.8755 12.7347 26.8275 16.0882 24.7562L14.5118 22.2038C10.612 24.6125 7.57674 28.1245 5.3885 32.6693L8.0915 33.9707ZM16.1017 24.7478C19.4718 22.6167 23.2967 21.54 27.62 21.54V18.54C22.7699 18.54 18.3816 19.7566 14.4983 22.2122L16.1017 24.7478ZM27.62 21.54C32.0005 21.54 35.8205 22.6185 39.1298 24.7424L40.7502 22.2176C36.9128 19.7548 32.5195 18.54 27.62 18.54V21.54ZM39.1518 24.7562C42.5053 26.8275 45.1767 29.8755 47.1485 33.9707L49.8515 32.6693C47.6633 28.1245 44.6281 24.6125 40.7282 22.2038L39.1518 24.7562ZM47.1485 33.9707C49.1074 38.0392 50.12 43.0311 50.12 49H53.12C53.12 42.7022 52.0526 37.2408 49.8515 32.6693L47.1485 33.9707ZM50.12 49C50.12 54.9689 49.1074 59.9608 47.1485 64.0293L49.8515 65.3307C52.0526 60.7592 53.12 55.2978 53.12 49H50.12ZM47.1485 64.0293C45.1756 68.1268 42.5004 71.2062 39.1383 73.3322L40.7417 75.8678C44.633 73.4071 47.6644 69.8732 49.8515 65.3307L47.1485 64.0293ZM39.1433 73.3291C35.8324 75.4046 32.0074 76.46 27.62 76.46L27.62 79.46C32.5126 79.46 36.901 78.2754 40.7367 75.8709L39.1433 73.3291ZM27.62 68.5C30.107 68.5 32.3282 67.7952 34.2127 66.3504L32.3874 63.9696C31.0718 64.9782 29.5063 65.5 27.62 65.5V68.5ZM34.1938 66.3646C36.167 64.9007 37.5906 62.6545 38.5602 59.8029L35.7198 58.8371C34.8761 61.3189 33.7397 62.966 32.4062 63.9554L34.1938 66.3646ZM38.5513 59.8281C39.5912 56.9396 40.08 53.3105 40.08 49H37.08C37.08 53.1162 36.6088 56.367 35.7287 58.8119L38.5513 59.8281ZM40.08 49C40.08 44.6895 39.5912 41.0604 38.5513 38.1719L35.7287 39.1881C36.6088 41.633 37.08 44.8838 37.08 49H40.08ZM38.5602 38.1971C37.5906 35.3455 36.167 33.0993 34.1938 31.6353L32.4062 34.0446C33.7397 35.034 34.8761 36.6811 35.7198 39.1629L38.5602 38.1971ZM34.2127 31.6496C32.3282 30.2048 30.107 29.5 27.62 29.5V32.5C29.5063 32.5 31.0718 33.0218 32.3874 34.0304L34.2127 31.6496ZM27.62 29.5C25.1773 29.5 22.9679 30.2096 21.0462 31.6353L22.8338 34.0446C24.2187 33.0171 25.7961 32.5 27.62 32.5V29.5ZM21.0274 31.6496C19.1242 33.1086 17.7082 35.3399 16.6887 38.1719L19.5113 39.1881C20.4118 36.6868 21.5558 35.0247 22.8526 34.0304L21.0274 31.6496ZM16.6798 38.1971C15.701 41.0761 15.24 44.6956 15.24 49H18.24C18.24 44.8777 18.6857 41.6173 19.5202 39.1629L16.6798 38.1971ZM15.24 49C15.24 53.3044 15.701 56.9239 16.6798 59.8029L19.5202 58.8371C18.6857 56.3827 18.24 53.1223 18.24 49H15.24ZM16.6887 59.8281C17.7082 62.6601 19.1242 64.8914 21.0274 66.3504L22.8526 63.9696C21.5558 62.9753 20.4118 61.3132 19.5113 58.8119L16.6887 59.8281ZM21.0462 66.3646C22.9679 67.7904 25.1773 68.5 27.62 68.5V65.5C25.7961 65.5 24.2187 64.9829 22.8338 63.9554L21.0462 66.3646ZM57.2769 65.24H55.7769L55.7769 66.74H57.2769L57.2769 65.24ZM57.2769 56.52L56.073 55.6252L55.7769 56.0236V56.52H57.2769ZM83.6769 21V19.5H82.9228L82.473 20.1052L83.6769 21ZM97.2769 21L98.4899 21.8824L100.223 19.5L97.2769 19.5V21ZM71.4369 56.52L71.0176 57.9602L72.0297 58.2549L72.6499 57.4024L71.4369 56.52ZM65.1169 54.68V53.18L64.6976 56.1202L65.1169 54.68ZM109.197 54.68H110.697V53.18H109.197V54.68ZM109.197 65.24V66.74H110.697V65.24H109.197ZM87.4369 77H85.9369V78.5H87.4369V77ZM87.4369 65.24L85.938 65.1832L85.9369 65.2116V65.24H87.4369ZM87.8369 54.68L89.3358 54.7368L89.3369 54.7084V54.68H87.8369ZM87.8369 44.2L87.8369 42.7H86.3369L86.3369 44.2H87.8369ZM100.077 44.2H101.577L101.577 42.7H100.077L100.077 44.2ZM100.077 77V78.5H101.577V77H100.077ZM58.7769 65.24V56.52H55.7769V65.24H58.7769ZM58.4808 57.4148L84.8808 21.8948L82.473 20.1052L56.073 55.6252L58.4808 57.4148ZM83.6769 22.5H97.2769V19.5H83.6769V22.5ZM96.0639 20.1176L70.2239 55.6376L72.6499 57.4024L98.4899 21.8824L96.0639 20.1176ZM71.8562 55.0798L65.5362 53.2398L64.6976 56.1202L71.0176 57.9602L71.8562 55.0798ZM65.1169 56.18L109.197 56.18V53.18L65.1169 53.18V56.18ZM107.697 54.68V65.24H110.697V54.68H107.697ZM109.197 63.74L57.2769 63.74L57.2769 66.74H109.197V63.74ZM88.9369 77V65.24H85.9369V77H88.9369ZM88.9358 65.2968L89.3358 54.7368L86.338 54.6232L85.938 65.1832L88.9358 65.2968ZM89.3369 54.68V44.2H86.3369V54.68H89.3369ZM87.8369 45.7H100.077L100.077 42.7H87.8369L87.8369 45.7ZM98.5769 44.2V77H101.577V44.2H98.5769ZM100.077 75.5H87.4369V78.5H100.077V75.5Z" fill="#FFA471" mask="url(#path-1-outside-1_388_20)"/>
</svg>
