<svg width="24" height="24" viewBox="0 0 24 24" fill="none" xmlns="http://www.w3.org/2000/svg">
<path d="M13.3333 13.3H12.8333V13.8V23.5H9.64286V13.8V13.3H9.14286H6.5V9.5H9.14286H9.64286V9V5.64C9.64286 3.90419 10.1221 2.62499 10.8795 1.78563C11.6326 0.951088 12.7064 0.5 14.007 0.5C14.9981 0.5 15.9461 0.562812 16.5 0.614639V3.7H15.4286C14.2949 3.7 13.5541 4.01988 13.1642 4.6831C12.9843 4.98917 12.9063 5.32711 12.8694 5.64609C12.8333 5.95785 12.8333 6.28665 12.8333 6.58539V6.6V9V9.5H13.3333H16.3791L15.5497 13.3H13.3333Z" stroke="white"/>
</svg>
