<svg width="97" height="58" viewBox="0 0 97 58" fill="none" xmlns="http://www.w3.org/2000/svg">
<mask id="path-1-outside-1_373_52" maskUnits="userSpaceOnUse" x="-1.5" y="-2" width="100" height="62" fill="black">
<rect fill="white" x="-1.5" y="-2" width="100" height="62"/>
<path d="M24.62 57.96C20.0333 57.96 15.9267 56.84 12.3 54.6C8.67333 52.3067 5.82 49 3.74 44.68C1.66 40.36 0.62 35.1333 0.62 29C0.62 22.8667 1.66 17.64 3.74 13.32C5.82 9 8.67333 5.72 12.3 3.48C15.9267 1.18667 20.0333 0.039999 24.62 0.039999C29.26 0.039999 33.3667 1.18667 36.94 3.48C40.5667 5.72 43.42 9 45.5 13.32C47.58 17.64 48.62 22.8667 48.62 29C48.62 35.1333 47.58 40.36 45.5 44.68C43.42 49 40.5667 52.3067 36.94 54.6C33.3667 56.84 29.26 57.96 24.62 57.96ZM24.62 47C26.8067 47 28.7 46.3867 30.3 45.16C31.9533 43.9333 33.2333 41.9867 34.14 39.32C35.1 36.6533 35.58 33.2133 35.58 29C35.58 24.7867 35.1 21.3467 34.14 18.68C33.2333 16.0133 31.9533 14.0667 30.3 12.84C28.7 11.6133 26.8067 11 24.62 11C22.4867 11 20.5933 11.6133 18.94 12.84C17.34 14.0667 16.06 16.0133 15.1 18.68C14.1933 21.3467 13.74 24.7867 13.74 29C13.74 33.2133 14.1933 36.6533 15.1 39.32C16.06 41.9867 17.34 43.9333 18.94 45.16C20.5933 46.3867 22.4867 47 24.62 47ZM54.1244 57V48.6L75.7244 28.2C77.431 26.6533 78.6844 25.2667 79.4844 24.04C80.2844 22.8133 80.8177 21.6933 81.0844 20.68C81.4044 19.6667 81.5644 18.7333 81.5644 17.88C81.5644 15.64 80.791 13.9333 79.2444 12.76C77.751 11.5333 75.5377 10.92 72.6044 10.92C70.2577 10.92 68.071 11.3733 66.0444 12.28C64.071 13.1867 62.391 14.6 61.0044 16.52L51.5644 10.44C53.6977 7.24 56.6844 4.70666 60.5244 2.84C64.3644 0.973331 68.791 0.039999 73.8044 0.039999C77.9644 0.039999 81.591 0.733331 84.6844 2.12C87.831 3.45333 90.2577 5.34667 91.9644 7.8C93.7244 10.2533 94.6044 13.1867 94.6044 16.6C94.6044 18.4133 94.3644 20.2267 93.8844 22.04C93.4577 23.8 92.551 25.6667 91.1644 27.64C89.831 29.6133 87.8577 31.8267 85.2444 34.28L67.3244 51.16L64.8444 46.44H96.4444V57H54.1244Z"/>
</mask>
<path d="M12.3 54.6L11.4983 55.8678L11.505 55.872L11.5118 55.8762L12.3 54.6ZM3.74 44.68L2.3885 45.3307L3.74 44.68ZM3.74 13.32L5.0915 13.9707L3.74 13.32ZM12.3 3.48L13.0882 4.7562L13.095 4.75203L13.1017 4.74779L12.3 3.48ZM36.94 3.48L36.1298 4.74238L36.1407 4.74938L36.1518 4.7562L36.94 3.48ZM45.5 13.32L44.1485 13.9707L45.5 13.32ZM45.5 44.68L44.1485 44.0293L45.5 44.68ZM36.94 54.6L37.7367 55.8709L37.7417 55.8678L36.94 54.6ZM30.3 45.16L29.4062 43.9554L29.3967 43.9624L29.3874 43.9696L30.3 45.16ZM34.14 39.32L32.7287 38.8119L32.7241 38.8245L32.7198 38.8371L34.14 39.32ZM34.14 18.68L32.7198 19.1629L32.7241 19.1755L32.7287 19.1881L34.14 18.68ZM30.3 12.84L29.3874 14.0304L29.3967 14.0376L29.4062 14.0446L30.3 12.84ZM18.94 12.84L18.0462 11.6353L18.0367 11.6424L18.0274 11.6496L18.94 12.84ZM15.1 18.68L13.6887 18.1719L13.6841 18.1845L13.6798 18.1971L15.1 18.68ZM15.1 39.32L13.6798 39.8029L13.6841 39.8155L13.6887 39.8281L15.1 39.32ZM18.94 45.16L18.0274 46.3504L18.0367 46.3576L18.0462 46.3646L18.94 45.16ZM24.62 56.46C20.2898 56.46 16.46 55.4063 13.0882 53.3238L11.5118 55.8762C15.3934 58.2737 19.7769 59.46 24.62 59.46L24.62 56.46ZM13.1017 53.3322C9.73962 51.2062 7.06437 48.1268 5.0915 44.0293L2.3885 45.3307C4.57563 49.8732 7.60704 53.4071 11.4983 55.8678L13.1017 53.3322ZM5.0915 44.0293C3.13259 39.9608 2.12 34.9689 2.12 29H-0.88C-0.88 35.2978 0.18741 40.7592 2.3885 45.3307L5.0915 44.0293ZM2.12 29C2.12 23.0311 3.13259 18.0392 5.0915 13.9707L2.3885 12.6693C0.18741 17.2408 -0.88 22.7022 -0.88 29H2.12ZM5.0915 13.9707C7.06327 9.87552 9.73472 6.82749 13.0882 4.7562L11.5118 2.2038C7.61195 4.6125 4.57674 8.12448 2.3885 12.6693L5.0915 13.9707ZM13.1017 4.74779C16.4718 2.6167 20.2967 1.54 24.62 1.54V-1.46C19.7699 -1.46 15.3816 -0.243372 11.4983 2.21221L13.1017 4.74779ZM24.62 1.54C29.0005 1.54 32.8205 2.61851 36.1298 4.74238L37.7502 2.21762C33.9128 -0.245176 29.5195 -1.46 24.62 -1.46V1.54ZM36.1518 4.7562C39.5053 6.82749 42.1767 9.87552 44.1485 13.9707L46.8515 12.6693C44.6633 8.12448 41.6281 4.6125 37.7282 2.2038L36.1518 4.7562ZM44.1485 13.9707C46.1074 18.0392 47.12 23.0311 47.12 29H50.12C50.12 22.7022 49.0526 17.2408 46.8515 12.6693L44.1485 13.9707ZM47.12 29C47.12 34.9689 46.1074 39.9608 44.1485 44.0293L46.8515 45.3307C49.0526 40.7592 50.12 35.2978 50.12 29H47.12ZM44.1485 44.0293C42.1756 48.1268 39.5004 51.2062 36.1383 53.3322L37.7417 55.8678C41.633 53.4071 44.6644 49.8732 46.8515 45.3307L44.1485 44.0293ZM36.1433 53.3291C32.8324 55.4046 29.0074 56.46 24.62 56.46L24.62 59.46C29.5126 59.46 33.901 58.2754 37.7367 55.8709L36.1433 53.3291ZM24.62 48.5C27.107 48.5 29.3282 47.7952 31.2127 46.3504L29.3874 43.9696C28.0718 44.9782 26.5063 45.5 24.62 45.5V48.5ZM31.1938 46.3646C33.167 44.9007 34.5906 42.6545 35.5602 39.8029L32.7198 38.8371C31.8761 41.3189 30.7397 42.966 29.4062 43.9554L31.1938 46.3646ZM35.5513 39.8281C36.5912 36.9396 37.08 33.3105 37.08 29H34.08C34.08 33.1162 33.6088 36.367 32.7287 38.8119L35.5513 39.8281ZM37.08 29C37.08 24.6895 36.5912 21.0604 35.5513 18.1719L32.7287 19.1881C33.6088 21.633 34.08 24.8838 34.08 29H37.08ZM35.5602 18.1971C34.5906 15.3455 33.167 13.0993 31.1938 11.6353L29.4062 14.0446C30.7397 15.034 31.8761 16.6811 32.7198 19.1629L35.5602 18.1971ZM31.2127 11.6496C29.3282 10.2048 27.107 9.5 24.62 9.5V12.5C26.5063 12.5 28.0718 13.0218 29.3874 14.0304L31.2127 11.6496ZM24.62 9.5C22.1773 9.5 19.9679 10.2096 18.0462 11.6353L19.8338 14.0446C21.2187 13.0171 22.7961 12.5 24.62 12.5V9.5ZM18.0274 11.6496C16.1242 13.1086 14.7082 15.3399 13.6887 18.1719L16.5113 19.1881C17.4118 16.6868 18.5558 15.0247 19.8526 14.0304L18.0274 11.6496ZM13.6798 18.1971C12.701 21.0761 12.24 24.6956 12.24 29H15.24C15.24 24.8777 15.6857 21.6173 16.5202 19.1629L13.6798 18.1971ZM12.24 29C12.24 33.3044 12.701 36.9239 13.6798 39.8029L16.5202 38.8371C15.6857 36.3827 15.24 33.1223 15.24 29H12.24ZM13.6887 39.8281C14.7082 42.6601 16.1242 44.8914 18.0274 46.3504L19.8526 43.9696C18.5558 42.9753 17.4118 41.3132 16.5113 38.8119L13.6887 39.8281ZM18.0462 46.3646C19.9679 47.7904 22.1773 48.5 24.62 48.5V45.5C22.7961 45.5 21.2187 44.9829 19.8338 43.9554L18.0462 46.3646ZM54.1244 57H52.6244V58.5H54.1244V57ZM54.1244 48.6L53.0944 47.5095L52.6244 47.9534V48.6H54.1244ZM75.7244 28.2L74.7171 27.0885L74.7057 27.0989L74.6944 27.1095L75.7244 28.2ZM79.4844 24.04L80.7408 24.8594L79.4844 24.04ZM81.0844 20.68L79.654 20.2283L79.643 20.263L79.6338 20.2983L81.0844 20.68ZM79.2444 12.76L78.2923 13.9191L78.3147 13.9375L78.3378 13.955L79.2444 12.76ZM66.0444 12.28L65.4318 10.9108L65.425 10.9138L65.4181 10.917L66.0444 12.28ZM61.0044 16.52L60.1922 17.7811L61.3878 18.5511L62.2204 17.3982L61.0044 16.52ZM51.5644 10.44L50.3163 9.60795L49.471 10.8759L50.7522 11.7011L51.5644 10.44ZM60.5244 2.84L59.8686 1.49094L60.5244 2.84ZM84.6844 2.12L84.0708 3.48876L84.0849 3.49509L84.0992 3.50112L84.6844 2.12ZM91.9644 7.8L90.733 8.6566L90.7392 8.66552L90.7456 8.67436L91.9644 7.8ZM93.8844 22.04L92.4343 21.6562L92.4303 21.6713L92.4266 21.6866L93.8844 22.04ZM91.1644 27.64L89.9371 26.7776L89.9292 26.7888L89.9215 26.8002L91.1644 27.64ZM85.2444 34.28L84.2177 33.1864L84.2159 33.1881L85.2444 34.28ZM67.3244 51.16L65.9965 51.8577L66.9152 53.6061L68.3529 52.2519L67.3244 51.16ZM64.8444 46.44V44.94H62.3618L63.5165 47.1377L64.8444 46.44ZM96.4444 46.44H97.9444V44.94H96.4444V46.44ZM96.4444 57V58.5H97.9444V57H96.4444ZM55.6244 57V48.6H52.6244V57H55.6244ZM55.1543 49.6905L76.7543 29.2905L74.6944 27.1095L53.0944 47.5095L55.1543 49.6905ZM76.7317 29.3115C78.4859 27.7217 79.8425 26.2368 80.7408 24.8594L78.228 23.2206C77.5263 24.2965 76.3762 25.5849 74.7171 27.0885L76.7317 29.3115ZM80.7408 24.8594C81.5964 23.5474 82.2148 22.2786 82.535 21.0617L79.6338 20.2983C79.4207 21.1081 78.9723 22.0792 78.228 23.2206L80.7408 24.8594ZM82.5147 21.1317C82.8701 20.0065 83.0644 18.9188 83.0644 17.88H80.0644C80.0644 18.5479 79.9387 19.3268 79.654 20.2283L82.5147 21.1317ZM83.0644 17.88C83.0644 15.2527 82.1323 13.068 80.151 11.565L78.3378 13.955C79.4498 14.7986 80.0644 16.0273 80.0644 17.88H83.0644ZM80.1965 11.6009C78.3266 10.065 75.7129 9.42 72.6044 9.42V12.42C75.3625 12.42 77.1755 13.0017 78.2923 13.9191L80.1965 11.6009ZM72.6044 9.42C70.0589 9.42 67.6621 9.91302 65.4318 10.9108L66.6569 13.6492C68.48 12.8336 70.4566 12.42 72.6044 12.42V9.42ZM65.4181 10.917C63.1887 11.9413 61.3124 13.5315 59.7884 15.6418L62.2204 17.3982C63.4697 15.6685 64.9534 14.432 66.6706 13.643L65.4181 10.917ZM61.8166 15.2589L52.3766 9.17893L50.7522 11.7011L60.1922 17.7811L61.8166 15.2589ZM52.8125 11.272C54.782 8.31779 57.5529 5.95229 61.1802 4.18905L59.8686 1.49094C55.8158 3.46104 52.6135 6.16221 50.3163 9.60795L52.8125 11.272ZM61.1802 4.18905C64.7832 2.4376 68.9789 1.54 73.8044 1.54V-1.46C68.6032 -1.46 63.9456 -0.490934 59.8686 1.49094L61.1802 4.18905ZM73.8044 1.54C77.7998 1.54 81.2091 2.20592 84.0708 3.48876L85.298 0.751232C81.973 -0.739262 78.129 -1.46 73.8044 -1.46V1.54ZM84.0992 3.50112C87.0236 4.74028 89.2102 6.46748 90.733 8.6566L93.1957 6.9434C91.3053 4.22585 88.6385 2.16638 85.2696 0.738869L84.0992 3.50112ZM90.7456 8.67436C92.2993 10.8402 93.1044 13.4577 93.1044 16.6H96.1044C96.1044 12.9156 95.1494 9.66644 93.1832 6.92564L90.7456 8.67436ZM93.1044 16.6C93.1044 18.2794 92.8823 19.9637 92.4343 21.6562L95.3344 22.4238C95.8464 20.4896 96.1044 18.5473 96.1044 16.6H93.1044ZM92.4266 21.6866C92.0562 23.2144 91.2495 24.9099 89.9371 26.7776L92.3917 28.5024C93.8526 26.4234 94.8592 24.3856 95.3422 22.3934L92.4266 21.6866ZM89.9215 26.8002C88.6734 28.6474 86.7862 30.7752 84.2177 33.1864L86.271 35.3736C88.9292 32.8781 90.9887 30.5793 92.4073 28.4798L89.9215 26.8002ZM84.2159 33.1881L66.2959 50.0681L68.3529 52.2519L86.2729 35.3719L84.2159 33.1881ZM68.6522 50.4623L66.1722 45.7423L63.5165 47.1377L65.9965 51.8577L68.6522 50.4623ZM64.8444 47.94H96.4444V44.94H64.8444V47.94ZM94.9444 46.44V57H97.9444V46.44H94.9444ZM96.4444 55.5H54.1244V58.5H96.4444V55.5Z" fill="#FFA471" mask="url(#path-1-outside-1_373_52)"/>
</svg>
