<svg width="157" height="112" viewBox="0 0 157 112" fill="none" xmlns="http://www.w3.org/2000/svg">
<mask id="path-1-outside-1_388_51" maskUnits="userSpaceOnUse" x="1.5" y="18" width="100" height="62" fill="black">
<rect fill="white" x="1.5" y="18" width="100" height="62"/>
<path d="M27.62 77.96C23.0333 77.96 18.9267 76.84 15.3 74.6C11.6733 72.3067 8.82 69 6.74 64.68C4.66 60.36 3.62 55.1333 3.62 49C3.62 42.8667 4.66 37.64 6.74 33.32C8.82 29 11.6733 25.72 15.3 23.48C18.9267 21.1867 23.0333 20.04 27.62 20.04C32.26 20.04 36.3667 21.1867 39.94 23.48C43.5667 25.72 46.42 29 48.5 33.32C50.58 37.64 51.62 42.8667 51.62 49C51.62 55.1333 50.58 60.36 48.5 64.68C46.42 69 43.5667 72.3067 39.94 74.6C36.3667 76.84 32.26 77.96 27.62 77.96ZM27.62 67C29.8067 67 31.7 66.3867 33.3 65.16C34.9533 63.9333 36.2333 61.9867 37.14 59.32C38.1 56.6533 38.58 53.2133 38.58 49C38.58 44.7867 38.1 41.3467 37.14 38.68C36.2333 36.0133 34.9533 34.0667 33.3 32.84C31.7 31.6133 29.8067 31 27.62 31C25.4867 31 23.5933 31.6133 21.94 32.84C20.34 34.0667 19.06 36.0133 18.1 38.68C17.1933 41.3467 16.74 44.7867 16.74 49C16.74 53.2133 17.1933 56.6533 18.1 59.32C19.06 61.9867 20.34 63.9333 21.94 65.16C23.5933 66.3867 25.4867 67 27.62 67ZM57.1244 77V68.6L78.7244 48.2C80.431 46.6533 81.6844 45.2667 82.4844 44.04C83.2844 42.8133 83.8177 41.6933 84.0844 40.68C84.4044 39.6667 84.5644 38.7333 84.5644 37.88C84.5644 35.64 83.791 33.9333 82.2444 32.76C80.751 31.5333 78.5377 30.92 75.6044 30.92C73.2577 30.92 71.071 31.3733 69.0444 32.28C67.071 33.1867 65.391 34.6 64.0044 36.52L54.5644 30.44C56.6977 27.24 59.6844 24.7067 63.5244 22.84C67.3644 20.9733 71.791 20.04 76.8044 20.04C80.9644 20.04 84.591 20.7333 87.6844 22.12C90.831 23.4533 93.2577 25.3467 94.9644 27.8C96.7244 30.2533 97.6044 33.1867 97.6044 36.6C97.6044 38.4133 97.3644 40.2267 96.8844 42.04C96.4577 43.8 95.551 45.6667 94.1644 47.64C92.831 49.6133 90.8577 51.8267 88.2444 54.28L70.3244 71.16L67.8444 66.44H99.4444V77H57.1244Z"/>
</mask>
<path d="M15.3 74.6L14.4983 75.8678L14.505 75.872L14.5118 75.8762L15.3 74.6ZM6.74 64.68L5.3885 65.3307L6.74 64.68ZM6.74 33.32L8.0915 33.9707L6.74 33.32ZM15.3 23.48L16.0882 24.7562L16.095 24.752L16.1017 24.7478L15.3 23.48ZM39.94 23.48L39.1298 24.7424L39.1407 24.7494L39.1518 24.7562L39.94 23.48ZM48.5 33.32L47.1485 33.9707L48.5 33.32ZM48.5 64.68L47.1485 64.0293L48.5 64.68ZM39.94 74.6L40.7367 75.8709L40.7417 75.8678L39.94 74.6ZM33.3 65.16L32.4062 63.9554L32.3967 63.9624L32.3874 63.9696L33.3 65.16ZM37.14 59.32L35.7287 58.8119L35.7241 58.8245L35.7198 58.8371L37.14 59.32ZM37.14 38.68L35.7198 39.1629L35.7241 39.1755L35.7287 39.1881L37.14 38.68ZM33.3 32.84L32.3874 34.0304L32.3967 34.0376L32.4062 34.0446L33.3 32.84ZM21.94 32.84L21.0462 31.6353L21.0367 31.6424L21.0274 31.6496L21.94 32.84ZM18.1 38.68L16.6887 38.1719L16.6841 38.1845L16.6798 38.1971L18.1 38.68ZM18.1 59.32L16.6798 59.8029L16.6841 59.8155L16.6887 59.8281L18.1 59.32ZM21.94 65.16L21.0274 66.3504L21.0367 66.3576L21.0462 66.3646L21.94 65.16ZM27.62 76.46C23.2898 76.46 19.46 75.4063 16.0882 73.3238L14.5118 75.8762C18.3934 78.2737 22.7769 79.46 27.62 79.46L27.62 76.46ZM16.1017 73.3322C12.7396 71.2062 10.0644 68.1268 8.0915 64.0293L5.3885 65.3307C7.57563 69.8732 10.607 73.4071 14.4983 75.8678L16.1017 73.3322ZM8.0915 64.0293C6.13259 59.9608 5.12 54.9689 5.12 49H2.12C2.12 55.2978 3.18741 60.7592 5.3885 65.3307L8.0915 64.0293ZM5.12 49C5.12 43.0311 6.13259 38.0392 8.0915 33.9707L5.3885 32.6693C3.18741 37.2408 2.12 42.7022 2.12 49H5.12ZM8.0915 33.9707C10.0633 29.8755 12.7347 26.8275 16.0882 24.7562L14.5118 22.2038C10.612 24.6125 7.57674 28.1245 5.3885 32.6693L8.0915 33.9707ZM16.1017 24.7478C19.4718 22.6167 23.2967 21.54 27.62 21.54V18.54C22.7699 18.54 18.3816 19.7566 14.4983 22.2122L16.1017 24.7478ZM27.62 21.54C32.0005 21.54 35.8205 22.6185 39.1298 24.7424L40.7502 22.2176C36.9128 19.7548 32.5195 18.54 27.62 18.54V21.54ZM39.1518 24.7562C42.5053 26.8275 45.1767 29.8755 47.1485 33.9707L49.8515 32.6693C47.6633 28.1245 44.6281 24.6125 40.7282 22.2038L39.1518 24.7562ZM47.1485 33.9707C49.1074 38.0392 50.12 43.0311 50.12 49H53.12C53.12 42.7022 52.0526 37.2408 49.8515 32.6693L47.1485 33.9707ZM50.12 49C50.12 54.9689 49.1074 59.9608 47.1485 64.0293L49.8515 65.3307C52.0526 60.7592 53.12 55.2978 53.12 49H50.12ZM47.1485 64.0293C45.1756 68.1268 42.5004 71.2062 39.1383 73.3322L40.7417 75.8678C44.633 73.4071 47.6644 69.8732 49.8515 65.3307L47.1485 64.0293ZM39.1433 73.3291C35.8324 75.4046 32.0074 76.46 27.62 76.46L27.62 79.46C32.5126 79.46 36.901 78.2754 40.7367 75.8709L39.1433 73.3291ZM27.62 68.5C30.107 68.5 32.3282 67.7952 34.2127 66.3504L32.3874 63.9696C31.0718 64.9782 29.5063 65.5 27.62 65.5V68.5ZM34.1938 66.3646C36.167 64.9007 37.5906 62.6545 38.5602 59.8029L35.7198 58.8371C34.8761 61.3189 33.7397 62.966 32.4062 63.9554L34.1938 66.3646ZM38.5513 59.8281C39.5912 56.9396 40.08 53.3105 40.08 49H37.08C37.08 53.1162 36.6088 56.367 35.7287 58.8119L38.5513 59.8281ZM40.08 49C40.08 44.6895 39.5912 41.0604 38.5513 38.1719L35.7287 39.1881C36.6088 41.633 37.08 44.8838 37.08 49H40.08ZM38.5602 38.1971C37.5906 35.3455 36.167 33.0993 34.1938 31.6353L32.4062 34.0446C33.7397 35.034 34.8761 36.6811 35.7198 39.1629L38.5602 38.1971ZM34.2127 31.6496C32.3282 30.2048 30.107 29.5 27.62 29.5V32.5C29.5063 32.5 31.0718 33.0218 32.3874 34.0304L34.2127 31.6496ZM27.62 29.5C25.1773 29.5 22.9679 30.2096 21.0462 31.6353L22.8338 34.0446C24.2187 33.0171 25.7961 32.5 27.62 32.5V29.5ZM21.0274 31.6496C19.1242 33.1086 17.7082 35.3399 16.6887 38.1719L19.5113 39.1881C20.4118 36.6868 21.5558 35.0247 22.8526 34.0304L21.0274 31.6496ZM16.6798 38.1971C15.701 41.0761 15.24 44.6956 15.24 49H18.24C18.24 44.8777 18.6857 41.6173 19.5202 39.1629L16.6798 38.1971ZM15.24 49C15.24 53.3044 15.701 56.9239 16.6798 59.8029L19.5202 58.8371C18.6857 56.3827 18.24 53.1223 18.24 49H15.24ZM16.6887 59.8281C17.7082 62.6601 19.1242 64.8914 21.0274 66.3504L22.8526 63.9696C21.5558 62.9753 20.4118 61.3132 19.5113 58.8119L16.6887 59.8281ZM21.0462 66.3646C22.9679 67.7904 25.1773 68.5 27.62 68.5V65.5C25.7961 65.5 24.2187 64.9829 22.8338 63.9554L21.0462 66.3646ZM57.1244 77H55.6244V78.5H57.1244V77ZM57.1244 68.6L56.0944 67.5095L55.6244 67.9534V68.6H57.1244ZM78.7244 48.2L77.7171 47.0885L77.7057 47.0989L77.6944 47.1095L78.7244 48.2ZM82.4844 44.04L83.7408 44.8594L82.4844 44.04ZM84.0844 40.68L82.654 40.2283L82.643 40.263L82.6338 40.2983L84.0844 40.68ZM82.2444 32.76L81.2923 33.9191L81.3147 33.9375L81.3378 33.955L82.2444 32.76ZM69.0444 32.28L68.4318 30.9108L68.425 30.9138L68.4181 30.917L69.0444 32.28ZM64.0044 36.52L63.1922 37.7811L64.3878 38.5511L65.2204 37.3982L64.0044 36.52ZM54.5644 30.44L53.3163 29.6079L52.471 30.8759L53.7522 31.7011L54.5644 30.44ZM63.5244 22.84L62.8686 21.4909L63.5244 22.84ZM87.6844 22.12L87.0708 23.4888L87.0849 23.4951L87.0992 23.5011L87.6844 22.12ZM94.9644 27.8L93.733 28.6566L93.7392 28.6655L93.7456 28.6744L94.9644 27.8ZM96.8844 42.04L95.4343 41.6562L95.4303 41.6713L95.4266 41.6866L96.8844 42.04ZM94.1644 47.64L92.9371 46.7776L92.9292 46.7888L92.9215 46.8002L94.1644 47.64ZM88.2444 54.28L87.2177 53.1864L87.2159 53.1881L88.2444 54.28ZM70.3244 71.16L68.9965 71.8577L69.9152 73.6061L71.3529 72.2519L70.3244 71.16ZM67.8444 66.44V64.94H65.3618L66.5165 67.1377L67.8444 66.44ZM99.4444 66.44H100.944V64.94H99.4444V66.44ZM99.4444 77V78.5H100.944V77H99.4444ZM58.6244 77V68.6H55.6244V77H58.6244ZM58.1543 69.6905L79.7543 49.2905L77.6944 47.1095L56.0944 67.5095L58.1543 69.6905ZM79.7317 49.3115C81.4859 47.7217 82.8425 46.2368 83.7408 44.8594L81.228 43.2206C80.5263 44.2965 79.3762 45.5849 77.7171 47.0885L79.7317 49.3115ZM83.7408 44.8594C84.5964 43.5474 85.2148 42.2786 85.535 41.0617L82.6338 40.2983C82.4207 41.1081 81.9723 42.0792 81.228 43.2206L83.7408 44.8594ZM85.5147 41.1317C85.8701 40.0065 86.0644 38.9188 86.0644 37.88H83.0644C83.0644 38.5479 82.9387 39.3268 82.654 40.2283L85.5147 41.1317ZM86.0644 37.88C86.0644 35.2527 85.1323 33.068 83.151 31.565L81.3378 33.955C82.4498 34.7986 83.0644 36.0273 83.0644 37.88H86.0644ZM83.1965 31.6009C81.3266 30.065 78.7129 29.42 75.6044 29.42V32.42C78.3625 32.42 80.1755 33.0017 81.2923 33.9191L83.1965 31.6009ZM75.6044 29.42C73.0589 29.42 70.6621 29.913 68.4318 30.9108L69.6569 33.6492C71.48 32.8336 73.4566 32.42 75.6044 32.42V29.42ZM68.4181 30.917C66.1887 31.9413 64.3124 33.5315 62.7884 35.6418L65.2204 37.3982C66.4697 35.6685 67.9534 34.432 69.6706 33.643L68.4181 30.917ZM64.8166 35.2589L55.3766 29.1789L53.7522 31.7011L63.1922 37.7811L64.8166 35.2589ZM55.8125 31.272C57.782 28.3178 60.5529 25.9523 64.1802 24.189L62.8686 21.4909C58.8158 23.461 55.6135 26.1622 53.3163 29.6079L55.8125 31.272ZM64.1802 24.189C67.7832 22.4376 71.9789 21.54 76.8044 21.54V18.54C71.6032 18.54 66.9456 19.5091 62.8686 21.4909L64.1802 24.189ZM76.8044 21.54C80.7998 21.54 84.2091 22.2059 87.0708 23.4888L88.298 20.7512C84.973 19.2607 81.129 18.54 76.8044 18.54V21.54ZM87.0992 23.5011C90.0236 24.7403 92.2102 26.4675 93.733 28.6566L96.1957 26.9434C94.3053 24.2259 91.6385 22.1664 88.2696 20.7389L87.0992 23.5011ZM93.7456 28.6744C95.2993 30.8402 96.1044 33.4577 96.1044 36.6H99.1044C99.1044 32.9156 98.1494 29.6664 96.1832 26.9256L93.7456 28.6744ZM96.1044 36.6C96.1044 38.2794 95.8823 39.9637 95.4343 41.6562L98.3344 42.4238C98.8464 40.4896 99.1044 38.5473 99.1044 36.6H96.1044ZM95.4266 41.6866C95.0562 43.2144 94.2495 44.9099 92.9371 46.7776L95.3917 48.5024C96.8526 46.4234 97.8592 44.3856 98.3422 42.3934L95.4266 41.6866ZM92.9215 46.8002C91.6734 48.6474 89.7862 50.7752 87.2177 53.1864L89.271 55.3736C91.9292 52.8781 93.9887 50.5793 95.4073 48.4798L92.9215 46.8002ZM87.2159 53.1881L69.2959 70.0681L71.3529 72.2519L89.2729 55.3719L87.2159 53.1881ZM71.6522 70.4623L69.1722 65.7423L66.5165 67.1377L68.9965 71.8577L71.6522 70.4623ZM67.8444 67.94H99.4444V64.94H67.8444V67.94ZM97.9444 66.44V77H100.944V66.44H97.9444ZM99.4444 75.5H57.1244V78.5H99.4444V75.5Z" fill="#FFA471" mask="url(#path-1-outside-1_388_51)"/>
</svg>
