<svg width="96" height="58" viewBox="0 0 96 58" fill="none" xmlns="http://www.w3.org/2000/svg">
<mask id="path-1-outside-1_185_51" maskUnits="userSpaceOnUse" x="-1.5" y="-2" width="99" height="62" fill="black">
<rect fill="white" x="-1.5" y="-2" width="99" height="62"/>
<path d="M24.62 57.96C20.0333 57.96 15.9267 56.84 12.3 54.6C8.67333 52.3067 5.82 49 3.74 44.68C1.66 40.36 0.62 35.1333 0.62 29C0.62 22.8667 1.66 17.64 3.74 13.32C5.82 9 8.67333 5.72 12.3 3.48C15.9267 1.18667 20.0333 0.039999 24.62 0.039999C29.26 0.039999 33.3667 1.18667 36.94 3.48C40.5667 5.72 43.42 9 45.5 13.32C47.58 17.64 48.62 22.8667 48.62 29C48.62 35.1333 47.58 40.36 45.5 44.68C43.42 49 40.5667 52.3067 36.94 54.6C33.3667 56.84 29.26 57.96 24.62 57.96ZM24.62 47C26.8067 47 28.7 46.3867 30.3 45.16C31.9533 43.9333 33.2333 41.9867 34.14 39.32C35.1 36.6533 35.58 33.2133 35.58 29C35.58 24.7867 35.1 21.3467 34.14 18.68C33.2333 16.0133 31.9533 14.0667 30.3 12.84C28.7 11.6133 26.8067 11 24.62 11C22.4867 11 20.5933 11.6133 18.94 12.84C17.34 14.0667 16.06 16.0133 15.1 18.68C14.1933 21.3467 13.74 24.7867 13.74 29C13.74 33.2133 14.1933 36.6533 15.1 39.32C16.06 41.9867 17.34 43.9333 18.94 45.16C20.5933 46.3867 22.4867 47 24.62 47ZM72.2956 57.96C68.4023 57.96 64.5356 57.4533 60.6956 56.44C56.8556 55.3733 53.6023 53.88 50.9356 51.96L55.9756 42.04C58.109 43.5867 60.589 44.8133 63.4156 45.72C66.2423 46.6267 69.0956 47.08 71.9756 47.08C75.229 47.08 77.789 46.44 79.6556 45.16C81.5223 43.88 82.4556 42.12 82.4556 39.88C82.4556 37.7467 81.629 36.0667 79.9756 34.84C78.3223 33.6133 75.6556 33 71.9756 33H66.0556V24.44L81.6556 6.76L83.0956 11.4L53.7356 11.4L53.7356 0.999996L92.9356 0.999996V9.4L77.4156 27.08L70.8556 23.32H74.6156C81.4956 23.32 86.6956 24.8667 90.2156 27.96C93.7356 31.0533 95.4956 35.0267 95.4956 39.88C95.4956 43.0267 94.669 45.9867 93.0156 48.76C91.3623 51.48 88.829 53.6933 85.4156 55.4C82.0023 57.1067 77.629 57.96 72.2956 57.96Z"/>
</mask>
<path d="M12.3 54.6L11.4983 55.8678L11.505 55.872L11.5118 55.8762L12.3 54.6ZM3.74 44.68L2.3885 45.3307L3.74 44.68ZM3.74 13.32L5.0915 13.9707L3.74 13.32ZM12.3 3.48L13.0882 4.7562L13.095 4.75203L13.1017 4.74779L12.3 3.48ZM36.94 3.48L36.1298 4.74238L36.1407 4.74938L36.1518 4.7562L36.94 3.48ZM45.5 13.32L44.1485 13.9707L45.5 13.32ZM45.5 44.68L44.1485 44.0293L45.5 44.68ZM36.94 54.6L37.7367 55.8709L37.7417 55.8678L36.94 54.6ZM30.3 45.16L29.4062 43.9554L29.3967 43.9624L29.3874 43.9696L30.3 45.16ZM34.14 39.32L32.7287 38.8119L32.7241 38.8245L32.7198 38.8371L34.14 39.32ZM34.14 18.68L32.7198 19.1629L32.7241 19.1755L32.7287 19.1881L34.14 18.68ZM30.3 12.84L29.3874 14.0304L29.3967 14.0376L29.4062 14.0446L30.3 12.84ZM18.94 12.84L18.0462 11.6353L18.0367 11.6424L18.0274 11.6496L18.94 12.84ZM15.1 18.68L13.6887 18.1719L13.6841 18.1845L13.6798 18.1971L15.1 18.68ZM15.1 39.32L13.6798 39.8029L13.6841 39.8155L13.6887 39.8281L15.1 39.32ZM18.94 45.16L18.0274 46.3504L18.0367 46.3576L18.0462 46.3646L18.94 45.16ZM24.62 56.46C20.2898 56.46 16.46 55.4063 13.0882 53.3238L11.5118 55.8762C15.3934 58.2737 19.7769 59.46 24.62 59.46L24.62 56.46ZM13.1017 53.3322C9.73962 51.2062 7.06437 48.1268 5.0915 44.0293L2.3885 45.3307C4.57563 49.8732 7.60704 53.4071 11.4983 55.8678L13.1017 53.3322ZM5.0915 44.0293C3.13259 39.9608 2.12 34.9689 2.12 29H-0.88C-0.88 35.2978 0.18741 40.7592 2.3885 45.3307L5.0915 44.0293ZM2.12 29C2.12 23.0311 3.13259 18.0392 5.0915 13.9707L2.3885 12.6693C0.18741 17.2408 -0.88 22.7022 -0.88 29H2.12ZM5.0915 13.9707C7.06327 9.87552 9.73472 6.82749 13.0882 4.7562L11.5118 2.2038C7.61195 4.6125 4.57674 8.12448 2.3885 12.6693L5.0915 13.9707ZM13.1017 4.74779C16.4718 2.6167 20.2967 1.54 24.62 1.54V-1.46C19.7699 -1.46 15.3816 -0.243372 11.4983 2.21221L13.1017 4.74779ZM24.62 1.54C29.0005 1.54 32.8205 2.61851 36.1298 4.74238L37.7502 2.21762C33.9128 -0.245176 29.5195 -1.46 24.62 -1.46V1.54ZM36.1518 4.7562C39.5053 6.82749 42.1767 9.87552 44.1485 13.9707L46.8515 12.6693C44.6633 8.12448 41.6281 4.6125 37.7282 2.2038L36.1518 4.7562ZM44.1485 13.9707C46.1074 18.0392 47.12 23.0311 47.12 29H50.12C50.12 22.7022 49.0526 17.2408 46.8515 12.6693L44.1485 13.9707ZM47.12 29C47.12 34.9689 46.1074 39.9608 44.1485 44.0293L46.8515 45.3307C49.0526 40.7592 50.12 35.2978 50.12 29H47.12ZM44.1485 44.0293C42.1756 48.1268 39.5004 51.2062 36.1383 53.3322L37.7417 55.8678C41.633 53.4071 44.6644 49.8732 46.8515 45.3307L44.1485 44.0293ZM36.1433 53.3291C32.8324 55.4046 29.0074 56.46 24.62 56.46L24.62 59.46C29.5126 59.46 33.901 58.2754 37.7367 55.8709L36.1433 53.3291ZM24.62 48.5C27.107 48.5 29.3282 47.7952 31.2127 46.3504L29.3874 43.9696C28.0718 44.9782 26.5063 45.5 24.62 45.5V48.5ZM31.1938 46.3646C33.167 44.9007 34.5906 42.6545 35.5602 39.8029L32.7198 38.8371C31.8761 41.3189 30.7397 42.966 29.4062 43.9554L31.1938 46.3646ZM35.5513 39.8281C36.5912 36.9396 37.08 33.3105 37.08 29H34.08C34.08 33.1162 33.6088 36.367 32.7287 38.8119L35.5513 39.8281ZM37.08 29C37.08 24.6895 36.5912 21.0604 35.5513 18.1719L32.7287 19.1881C33.6088 21.633 34.08 24.8838 34.08 29H37.08ZM35.5602 18.1971C34.5906 15.3455 33.167 13.0993 31.1938 11.6353L29.4062 14.0446C30.7397 15.034 31.8761 16.6811 32.7198 19.1629L35.5602 18.1971ZM31.2127 11.6496C29.3282 10.2048 27.107 9.5 24.62 9.5V12.5C26.5063 12.5 28.0718 13.0218 29.3874 14.0304L31.2127 11.6496ZM24.62 9.5C22.1773 9.5 19.9679 10.2096 18.0462 11.6353L19.8338 14.0446C21.2187 13.0171 22.7961 12.5 24.62 12.5V9.5ZM18.0274 11.6496C16.1242 13.1086 14.7082 15.3399 13.6887 18.1719L16.5113 19.1881C17.4118 16.6868 18.5558 15.0247 19.8526 14.0304L18.0274 11.6496ZM13.6798 18.1971C12.701 21.0761 12.24 24.6956 12.24 29H15.24C15.24 24.8777 15.6857 21.6173 16.5202 19.1629L13.6798 18.1971ZM12.24 29C12.24 33.3044 12.701 36.9239 13.6798 39.8029L16.5202 38.8371C15.6857 36.3827 15.24 33.1223 15.24 29H12.24ZM13.6887 39.8281C14.7082 42.6601 16.1242 44.8914 18.0274 46.3504L19.8526 43.9696C18.5558 42.9753 17.4118 41.3132 16.5113 38.8119L13.6887 39.8281ZM18.0462 46.3646C19.9679 47.7904 22.1773 48.5 24.62 48.5V45.5C22.7961 45.5 21.2187 44.9829 19.8338 43.9554L18.0462 46.3646ZM60.6956 56.44L60.2942 57.8853L60.3035 57.8879L60.3129 57.8904L60.6956 56.44ZM50.9356 51.96L49.5983 51.2806L49.0162 52.4264L50.0592 53.1773L50.9356 51.96ZM55.9756 42.04L56.8561 40.8256L55.434 39.7946L54.6383 41.3606L55.9756 42.04ZM63.4156 45.72L62.9575 47.1483L63.4156 45.72ZM79.6556 45.16L80.5039 46.3971L79.6556 45.16ZM66.0556 33H64.5556V34.5H66.0556V33ZM66.0556 24.44L64.9309 23.4476L64.5556 23.8728L64.5556 24.44H66.0556ZM81.6556 6.76L83.0882 6.3154L82.297 3.76594L80.5309 5.76757L81.6556 6.76ZM83.0956 11.4V12.9H85.1317L84.5282 10.9554L83.0956 11.4ZM53.7356 11.4L52.2356 11.4V12.9H53.7356V11.4ZM53.7356 0.999996V-0.500004L52.2356 -0.500004V0.999996L53.7356 0.999996ZM92.9356 0.999996H94.4356V-0.500004H92.9356V0.999996ZM92.9356 9.4L94.0629 10.3896L94.4356 9.96497V9.4H92.9356ZM77.4156 27.08L76.6697 28.3814L77.7338 28.9913L78.5429 28.0696L77.4156 27.08ZM70.8556 23.32V21.82H65.2222L70.1097 24.6214L70.8556 23.32ZM90.2156 27.96L89.2255 29.0867L90.2156 27.96ZM93.0156 48.76L94.2975 49.5392L94.304 49.5281L93.0156 48.76ZM85.4156 55.4L84.7448 54.0584L85.4156 55.4ZM72.2956 56.46C68.5341 56.46 64.796 55.9707 61.0784 54.9896L60.3129 57.8904C64.2753 58.936 68.2705 59.46 72.2956 59.46V56.46ZM61.0971 54.9947C57.3924 53.9657 54.3082 52.5399 51.8121 50.7427L50.0592 53.1773C52.8964 55.2201 56.3188 56.781 60.2942 57.8853L61.0971 54.9947ZM52.2729 52.6394L57.3129 42.7194L54.6383 41.3606L49.5983 51.2806L52.2729 52.6394ZM55.0952 43.2544C57.3722 44.9053 59.9985 46.1992 62.9575 47.1483L63.8738 44.2917C61.1794 43.4275 58.8457 42.2681 56.8561 40.8256L55.0952 43.2544ZM62.9575 47.1483C65.9276 48.101 68.9354 48.58 71.9756 48.58V45.58C69.2559 45.58 66.557 45.1523 63.8738 44.2917L62.9575 47.1483ZM71.9756 48.58C75.4051 48.58 78.3002 47.9082 80.5039 46.3971L78.8073 43.9229C77.2777 44.9718 75.0528 45.58 71.9756 45.58V48.58ZM80.5039 46.3971C82.7734 44.8409 83.9556 42.6208 83.9556 39.88H80.9556C80.9556 41.6192 80.2712 42.9191 78.8073 43.9229L80.5039 46.3971ZM83.9556 39.88C83.9556 37.292 82.9201 35.1568 80.8694 33.6354L79.0819 36.0446C80.3379 36.9765 80.9556 38.2013 80.9556 39.88H83.9556ZM80.8694 33.6354C78.8225 32.1167 75.7541 31.5 71.9756 31.5V34.5C75.5571 34.5 77.8221 35.11 79.0819 36.0446L80.8694 33.6354ZM71.9756 31.5H66.0556V34.5H71.9756V31.5ZM67.5556 33V24.44H64.5556V33H67.5556ZM67.1804 25.4324L82.7804 7.75243L80.5309 5.76757L64.9309 23.4476L67.1804 25.4324ZM80.223 7.2046L81.663 11.8446L84.5282 10.9554L83.0882 6.3154L80.223 7.2046ZM83.0956 9.9L53.7356 9.9V12.9L83.0956 12.9V9.9ZM55.2356 11.4L55.2356 0.999996L52.2356 0.999996L52.2356 11.4L55.2356 11.4ZM53.7356 2.5L92.9356 2.5V-0.500004L53.7356 -0.500004L53.7356 2.5ZM91.4356 0.999996V9.4H94.4356V0.999996H91.4356ZM91.8083 8.41044L76.2883 26.0904L78.5429 28.0696L94.0629 10.3896L91.8083 8.41044ZM78.1615 25.7786L71.6015 22.0186L70.1097 24.6214L76.6697 28.3814L78.1615 25.7786ZM70.8556 24.82H74.6156L74.6156 21.82H70.8556L70.8556 24.82ZM74.6156 24.82C81.2981 24.82 86.0829 26.3251 89.2255 29.0867L91.2058 26.8333C87.3084 23.4082 81.6932 21.82 74.6156 21.82L74.6156 24.82ZM89.2255 29.0867C92.4084 31.8839 93.9956 35.4405 93.9956 39.88H96.9956C96.9956 34.6128 95.0628 30.2228 91.2058 26.8333L89.2255 29.0867ZM93.9956 39.88C93.9956 42.7489 93.2459 45.4445 91.7272 47.9919L94.304 49.5281C96.0921 46.5288 96.9956 43.3044 96.9956 39.88H93.9956ZM91.7338 47.9809C90.2541 50.4154 87.9563 52.4526 84.7448 54.0584L86.0864 56.7416C89.7016 54.9341 92.4705 52.5446 94.2974 49.5391L91.7338 47.9809ZM84.7448 54.0584C81.6057 55.6279 77.4831 56.46 72.2956 56.46V59.46C77.7748 59.46 82.3989 58.5854 86.0864 56.7416L84.7448 54.0584Z" fill="#FFA471" mask="url(#path-1-outside-1_185_51)"/>
</svg>
